<?xml version="1.0" encoding="UTF-8"?>
<svg width="23px" height="23px" viewBox="0 0 23 23" version="1.1" xmlns="http://www.w3.org/2000/svg" xmlns:xlink="http://www.w3.org/1999/xlink">
    <!-- Generator: Sketch 63.1 (92452) - https://sketch.com -->
    <title>MoveChannelRight</title>
    <desc>Created with Sketch.</desc>
    <g id="Page-1" stroke="none" stroke-width="1" fill="none" fill-rule="evenodd">
        <rect id="Rectangle" stroke="#979797" transform="translate(11.500000, 11.500000) scale(1, -1) translate(-11.500000, -11.500000) " x="-0.5" y="-0.5" width="24" height="24"></rect>
        <g id="Move-Channel-Right">
            <rect id="Rectangle" fill="#BBBBBB" x="0" y="3" width="6" height="17"></rect>
            <polygon id="Path" fill="#BBBBBB" transform="translate(20.000000, 11.500000) scale(-1, 1) translate(-20.000000, -11.500000) " points="23 3 23 6.841 18 11.4444444 23 16.127 23 20 17 20 17 3"></polygon>
            <polygon id="Path" fill="#666666" transform="translate(11.500000, 11.500000) scale(-1, 1) translate(-11.500000, -11.500000) " points="8 14 11 14 11 9 8 9 8 3 15 3 15 20 8 20"></polygon>
            <polygon id="Line" fill="#008CFF" fill-rule="nonzero" transform="translate(17.000000, 11.500000) scale(-1, 1) translate(-17.000000, -11.500000) " points="18 7 18 10 21 10 21 13 18 13 18 16 13 11.4444444"></polygon>
        </g>
    </g>
</svg>